<?xml version="1.0" standalone="no"?>
<!DOCTYPE svg PUBLIC "-//W3C//DTD SVG 20010904//EN"
 "http://www.w3.org/TR/2001/REC-SVG-20010904/DTD/svg10.dtd">
<svg version="1.0" xmlns="http://www.w3.org/2000/svg"
 width="512.000000pt" height="512.000000pt" viewBox="0 0 512.000000 512.000000"
 preserveAspectRatio="xMidYMid meet">

<g transform="translate(0.000000,512.000000) scale(0.100000,-0.100000)"
fill="none" stroke="#004aad" stroke-width="120">
<path d="M2455 5029 c-27 -6 -84 -27 -125 -47 -65 -32 -100 -61 -265 -224
l-190 -187 685 0 685 0 -185 182 c-102 101 -206 195 -231 210 -106 62 -259 89
-374 66z"/>
<path d="M967 4454 c-32 -7 -83 -26 -115 -41 -76 -35 -190 -149 -225 -225 -57
-120 -57 -123 -57 -883 l0 -700 495 -495 494 -494 318 315 c305 303 321 318
403 358 193 94 383 93 573 -6 63 -32 110 -75 387 -350 l316 -313 497 496 497
496 0 707 c0 779 1 765 -63 885 -67 127 -208 229 -351 255 -41 8 -537 11
-1585 10 -1271 -1 -1536 -3 -1584 -15z"/>
<path d="M352 3047 l-112 -112 115 -115 115 -115 0 228 c0 125 -1 227 -3 227
-1 0 -53 -51 -115 -113z"/>
<path d="M4650 2940 l0 -225 112 113 113 112 -113 112 -112 113 0 -225z"/>
<path d="M172 1675 l3 -1190 24 -60 c13 -33 32 -72 41 -87 l16 -27 617 617
617 617 -660 660 -660 660 2 -1190z"/>
<path d="M4287 2203 l-657 -658 618 -618 c589 -589 618 -616 631 -596 7 12 25
52 39 88 l27 66 3 985 c1 542 1 1076 0 1188 l-3 202 -658 -657z"/>
<path d="M2436 2244 c-141 -34 -104 -1 -1148 -1043 l-968 -965 22 -23 c33 -35
107 -80 174 -105 l59 -23 1985 0 1985 0 59 23 c67 25 141 70 174 105 l22 23
-968 966 c-937 935 -969 967 -1042 1002 -118 57 -232 70 -354 40z"/>
</g>
</svg>
