<?xml version="1.0" standalone="no"?>
<!DOCTYPE svg PUBLIC "-//W3C//DTD SVG 20010904//EN"
 "http://www.w3.org/TR/2001/REC-SVG-20010904/DTD/svg10.dtd">
<svg version="1.0" xmlns="http://www.w3.org/2000/svg"
 width="512.000000pt" height="512.000000pt" viewBox="0 0 512.000000 512.000000"
 preserveAspectRatio="xMidYMid meet">

<g transform="translate(0.000000,512.000000) scale(0.100000,-0.100000)"
fill="none" stroke="#011254" stroke-width="160">
<path d="M530 4590 c-20 -20 -20 -33 -20 -693 0 -640 1 -675 18 -690 22 -20
55 -22 71 -4 8 10 12 202 13 658 l3 644 644 3 c456 1 648 5 658 13 19 16 16
53 -5 72 -17 16 -79 17 -690 17 -659 0 -672 0 -692 -20z"/>
<path d="M3207 4592 c-20 -22 -22 -55 -4 -71 10 -8 202 -12 658 -13 l644 -3 3
-644 c1 -456 5 -648 13 -658 16 -19 53 -16 72 5 16 17 17 79 17 690 0 659 0
672 -20 692 -20 20 -33 20 -693 20 -640 0 -675 -1 -690 -18z"/>
<path d="M2344 4005 c-440 -80 -805 -400 -938 -825 -93 -292 -67 -618 69 -892
24 -47 49 -95 56 -106 10 -17 -9 -54 -161 -307 -168 -279 -173 -289 -159 -314
14 -25 19 -26 129 -32 63 -4 183 -7 266 -8 102 -1 156 -5 167 -13 10 -7 71
-112 136 -233 l118 -220 34 0 c34 0 35 1 203 283 l169 282 126 0 126 0 168
-280 c92 -154 176 -284 185 -289 39 -20 58 5 171 216 61 115 117 217 124 227
11 15 43 18 282 26 259 9 271 10 288 31 9 12 17 25 17 29 0 4 -79 139 -175
300 l-176 293 47 89 c94 183 134 349 134 558 0 335 -116 617 -350 850 -181
181 -394 291 -647 335 -103 18 -310 18 -409 0z m389 -100 c242 -42 416 -133
593 -309 210 -210 310 -435 321 -723 7 -161 -7 -263 -53 -403 -58 -175 -142
-307 -281 -441 -370 -358 -933 -410 -1365 -126 -580 381 -665 1202 -175 1692
257 255 612 371 960 310z m911 -2054 c70 -118 124 -216 122 -219 -3 -2 -111
-8 -241 -12 -179 -6 -240 -11 -250 -21 -7 -8 -59 -101 -116 -206 -88 -165
-104 -190 -114 -175 -48 69 -246 415 -241 420 4 3 43 16 89 29 191 55 412 192
544 339 36 41 70 71 74 67 3 -5 63 -104 133 -222z m-1939 120 c156 -154 337
-260 531 -311 43 -11 79 -22 82 -24 2 -3 -53 -100 -123 -216 -70 -117 -131
-208 -135 -203 -5 4 -52 89 -105 188 -53 99 -104 187 -115 196 -15 13 -59 17
-251 22 -128 4 -234 9 -237 11 -3 3 139 247 253 436 0 0 45 -44 100 -99z"/>
<path d="M2401 3609 c-177 -35 -358 -143 -471 -282 -59 -72 -131 -213 -156
-307 -25 -91 -25 -310 0 -400 74 -275 289 -493 562 -572 67 -19 101 -23 224
-22 135 0 152 2 238 31 273 92 480 318 538 592 18 85 18 257 -1 343 -64 302
-313 550 -617 612 -82 17 -244 20 -317 5z m364 -123 c290 -93 485 -359 485
-660 0 -115 -19 -204 -63 -298 -111 -238 -332 -389 -592 -405 -126 -8 -234 15
-355 74 -79 39 -109 60 -180 132 -143 144 -205 291 -205 491 0 200 62 347 205
491 71 71 101 94 180 133 125 61 196 77 335 72 83 -3 130 -10 190 -30z"/>
<path d="M527 1912 c-16 -17 -17 -79 -17 -690 0 -659 0 -672 20 -692 20 -20
33 -20 693 -20 640 0 675 1 690 18 20 22 22 55 4 71 -10 8 -202 12 -658 13
l-644 3 -3 644 c-1 456 -5 648 -13 658 -16 19 -53 16 -72 -5z"/>
<path d="M4521 1917 c-8 -10 -12 -202 -13 -658 l-3 -644 -644 -3 c-456 -1
-648 -5 -658 -13 -19 -16 -16 -53 5 -72 17 -16 79 -17 690 -17 659 0 672 0
692 20 20 20 20 33 20 693 0 640 -1 675 -18 690 -22 20 -55 22 -71 4z"/>
</g>
</svg>
