<?xml version="1.0" standalone="no"?>
<!DOCTYPE svg PUBLIC "-//W3C//DTD SVG 20010904//EN"
 "http://www.w3.org/TR/2001/REC-SVG-20010904/DTD/svg10.dtd">
<svg version="1.0" xmlns="http://www.w3.org/2000/svg"
 width="512.000000pt" height="512.000000pt" viewBox="0 0 512.000000 512.000000"
 preserveAspectRatio="xMidYMid meet">

<g transform="translate(0.000000,512.000000) scale(0.100000,-0.100000)"
fill="#011254" stroke="none">
<path d="M3532 4973 c-11 -10 -113 -128 -226 -262 -224 -265 -231 -277 -181
-326 21 -22 33 -25 95 -25 l70 0 0 -476 c0 -449 1 -476 18 -469 46 18 190 56
245 65 34 5 119 10 190 10 l127 0 0 435 0 435 70 0 c62 0 74 3 95 25 50 49 43
62 -181 327 -113 134 -215 251 -226 261 -11 9 -33 17 -48 17 -15 0 -37 -8 -48
-17z"/>
<path d="M409 4291 c-109 -35 -190 -109 -243 -221 l-31 -65 -3 -1247 -2 -1248
1396 0 1396 0 -37 43 c-20 23 -53 63 -73 90 l-36 47 -1182 0 -1181 0 -34 23
c-74 49 -69 -34 -67 1167 l3 1075 22 41 c28 53 91 107 142 122 28 9 382 12
1345 12 l1306 0 0 90 0 90 -1332 -1 c-1252 0 -1336 -1 -1389 -18z"/>
<path d="M4030 4220 l0 -90 286 0 c189 0 300 -4 325 -12 51 -15 114 -69 142
-122 22 -41 22 -46 28 -651 l5 -610 27 -90 c59 -196 59 -409 1 -610 -14 -49
-29 -127 -33 -173 -8 -95 -25 -124 -90 -160 -23 -13 -49 -35 -58 -48 -15 -24
-14 -27 23 -82 l39 -57 133 -3 132 -3 -2 1248 -3 1248 -31 66 c-37 78 -87 136
-152 177 -90 57 -124 62 -464 62 l-308 0 0 -90z"/>
<path d="M1972 3733 c-7 -3 -19 -18 -27 -33 -13 -25 -15 -145 -15 -850 l0
-820 -50 0 -50 0 0 345 c0 363 -3 393 -45 409 -22 8 -468 8 -490 0 -42 -16
-45 -46 -45 -409 l0 -345 -70 0 c-62 0 -74 -3 -95 -25 -40 -39 -32 -96 16
-120 24 -13 142 -15 799 -15 423 0 770 3 770 6 0 3 -12 39 -26 80 l-27 74 -53
0 -54 0 0 820 c0 871 0 866 -45 884 -20 7 -474 7 -493 -1z"/>
<path d="M2643 3566 l-28 -24 -2 -454 -2 -453 25 70 c93 264 276 490 509 628
l47 28 -4 90 c-3 85 -5 92 -31 115 -28 24 -29 24 -257 24 -228 0 -229 0 -257
-24z"/>
<path d="M3540 3316 c-406 -86 -709 -395 -786 -803 -22 -118 -15 -315 16 -428
75 -278 264 -506 527 -639 155 -78 355 -114 531 -96 54 6 114 15 133 20 18 6
37 10 41 10 3 0 16 -30 28 -67 13 -38 26 -72 30 -76 4 -4 113 54 244 129 209
121 235 138 224 153 -7 9 -30 37 -52 63 l-38 47 66 83 c72 90 130 194 169 303
78 223 70 486 -24 711 -90 215 -294 426 -504 519 -136 60 -219 77 -385 81
-105 2 -176 -1 -220 -10z m365 -312 c297 -75 515 -356 515 -664 0 -109 -23
-202 -76 -310 -38 -77 -62 -110 -129 -176 -67 -68 -98 -90 -176 -127 -206
-100 -414 -100 -615 -1 -230 113 -377 354 -376 615 0 190 64 342 202 479 179
180 412 245 655 184z"/>
<path d="M4380 1226 c-135 -79 -244 -147 -243 -152 4 -22 327 -572 350 -595
13 -15 48 -40 76 -55 46 -26 62 -29 137 -29 75 0 91 3 138 30 117 64 175 194
143 321 -11 42 -339 625 -351 623 -3 0 -115 -65 -250 -143z"/>
<path d="M130 1293 c0 -147 73 -279 191 -350 107 -64 94 -63 936 -63 587 0
763 -3 763 -12 0 -7 -14 -85 -32 -174 l-32 -163 -206 -3 -206 -3 -66 -33 c-81
-40 -139 -102 -169 -181 -35 -92 -36 -125 -6 -155 l26 -26 1231 0 1231 0 26
26 c30 30 29 63 -6 155 -30 79 -88 141 -169 181 l-66 33 -206 3 -206 3 -32
163 c-18 89 -32 167 -32 174 0 9 113 12 478 12 l478 0 -78 158 -77 158 -68 -8
c-187 -21 -441 29 -623 123 l-76 39 -1502 0 -1502 0 0 -57z m1009 -129 c28
-35 26 -67 -3 -101 l-24 -28 -261 0 c-256 0 -261 0 -283 22 -28 28 -29 84 -3
113 17 19 29 20 286 20 l268 0 20 -26z m280 0 c27 -35 26 -67 -3 -101 -21 -25
-31 -28 -84 -28 -50 0 -65 4 -86 24 -33 31 -34 76 -4 108 18 20 31 23 89 23
61 0 70 -3 88 -26z m1516 -306 c6 -28 65 -320 65 -325 0 -1 -198 -3 -440 -3
-242 0 -440 2 -440 3 0 5 59 297 65 325 l5 22 370 0 370 0 5 -22z"/>
<path d="M4840 1344 c0 -12 112 -204 119 -204 12 0 31 97 31 156 l0 54 -75 0
c-41 0 -75 -3 -75 -6z"/>
</g>
</svg>
