<?xml version="1.0" standalone="no"?>
<!DOCTYPE svg PUBLIC "-//W3C//DTD SVG 20010904//EN"
 "http://www.w3.org/TR/2001/REC-SVG-20010904/DTD/svg10.dtd">
<svg version="1.0" xmlns="http://www.w3.org/2000/svg"
 width="512.000000pt" height="512.000000pt" viewBox="0 0 512.000000 512.000000"
 preserveAspectRatio="xMidYMid meet">

<g transform="translate(0.000000,512.000000) scale(0.100000,-0.100000)"
fill="#011254">
<path d="M500 5104 c-111 -23 -224 -86 -311 -173 -251 -252 -252 -650 0 -901
253 -252 651 -253 901 -1 253 254 253 648 0 902 -155 156 -374 220 -590 173z"/>
<path d="M1965 5100 c-111 -36 -207 -133 -240 -243 -22 -74 -22 -680 0 -754
33 -112 130 -208 245 -243 64 -20 90 -20 1465 -18 l1400 3 67 32 c82 39 142
99 182 183 l31 65 0 355 0 355 -31 65 c-40 84 -100 144 -182 183 l-67 32
-1405 2 c-1364 2 -1407 1 -1465 -17z"/>
<path d="M275 3186 c-111 -35 -190 -104 -239 -206 l-31 -65 0 -355 0 -355 31
-65 c39 -83 101 -145 184 -184 l65 -31 1400 -3 c1375 -2 1401 -2 1465 18 116
35 212 132 246 245 12 45 14 111 12 397 l-3 343 -27 58 c-37 78 -120 158 -195
189 l-58 23 -1405 2 c-1116 1 -1413 -1 -1445 -11z"/>
<path d="M4340 3184 c-111 -23 -224 -86 -311 -173 -251 -252 -252 -650 0 -901
253 -252 651 -253 901 -1 253 254 253 648 0 902 -155 156 -374 220 -590 173z"/>
<path d="M500 1264 c-234 -50 -436 -254 -485 -489 -95 -454 306 -855 760 -760
181 38 349 168 433 335 95 191 95 389 0 580 -129 257 -422 396 -708 334z"/>
<path d="M1965 1260 c-111 -36 -207 -133 -240 -243 -22 -74 -22 -680 0 -754
33 -112 130 -208 245 -243 64 -20 90 -20 1465 -18 l1400 3 67 32 c82 39 142
99 182 183 l31 65 0 355 0 355 -31 65 c-40 84 -100 144 -182 183 l-67 32
-1405 2 c-1364 2 -1407 1 -1465 -17z"/>
</g>
</svg>
