<?xml version="1.0" standalone="no"?>
<!DOCTYPE svg PUBLIC "-//W3C//DTD SVG 20010904//EN"
 "http://www.w3.org/TR/2001/REC-SVG-20010904/DTD/svg10.dtd">
<svg version="1.0" xmlns="http://www.w3.org/2000/svg"
 width="512.000000pt" height="512.000000pt" viewBox="0 0 512.000000 512.000000"
 preserveAspectRatio="xMidYMid meet">

<g transform="translate(0.000000,512.000000) scale(0.100000,-0.100000)"
fill="none" stroke="#004aad" stroke-width="120">
<path d="M870 4701 c-69 -10 -98 -25 -110 -57 -6 -16 -10 -719 -10 -1849 l0
-1824 24 -28 24 -28 289 -1 c310 0 401 -10 623 -68 238 -62 510 -184 715 -323
l50 -33 3 1871 c1 1459 -1 1875 -10 1887 -22 26 -246 169 -347 221 -197 101
-414 173 -651 216 -105 19 -502 30 -600 16z"/>
<path d="M3775 4704 c-316 -46 -538 -113 -778 -236 -97 -50 -324 -195 -346
-222 -8 -10 -10 -512 -9 -1884 l3 -1871 94 61 c255 164 563 282 886 340 104
19 158 22 408 22 l289 1 24 28 24 28 0 1825 c0 2011 5 1869 -62 1894 -33 12
-466 23 -533 14z"/>
<path d="M359 4267 c-9 -7 -21 -22 -27 -34 -9 -16 -12 -489 -12 -1892 l0
-1869 26 -31 26 -31 966 0 967 0 -37 25 c-62 42 -238 131 -334 169 -309 122
-558 163 -924 153 -222 -7 -226 -6 -275 17 -56 26 -98 70 -126 131 -18 38 -19
115 -19 1708 l0 1667 -107 0 c-69 -1 -114 -5 -124 -13z"/>
<path d="M4530 2623 c0 -1111 -4 -1670 -10 -1695 -15 -53 -68 -119 -120 -148
l-45 -25 -300 0 c-325 -1 -430 -13 -635 -71 -188 -54 -420 -155 -550 -238
l-55 -35 967 -1 966 0 26 31 26 31 0 1873 0 1873 -26 31 -26 31 -109 0 -109 0
0 -1657z"/>
</g>
</svg>
