<?xml version="1.0" standalone="no"?>
<!DOCTYPE svg PUBLIC "-//W3C//DTD SVG 20010904//EN"
 "http://www.w3.org/TR/2001/REC-SVG-20010904/DTD/svg10.dtd">
<svg version="1.0" xmlns="http://www.w3.org/2000/svg"
 width="512.000000pt" height="512.000000pt" viewBox="0 0 512.000000 512.000000"
 preserveAspectRatio="xMidYMid meet">

<g transform="translate(0.000000,512.000000) scale(0.100000,-0.100000)"
fill="#011254" stroke="none">
<path d="M501 5105 c-110 -24 -226 -89 -311 -175 -250 -250 -252 -649 -5 -895
122 -121 256 -183 419 -192 292 -16 560 170 649 452 31 99 31 271 0 370 -101
318 -428 510 -752 440z m285 -226 c111 -42 190 -115 239 -222 118 -257 -42
-552 -324 -598 -225 -36 -444 127 -482 360 -28 176 73 366 236 442 110 52 223
58 331 18z"/>
<path d="M1922 5101 c-29 -10 -70 -32 -90 -48 -47 -37 -99 -113 -112 -164 -7
-25 -10 -178 -8 -432 3 -387 3 -393 26 -435 35 -66 88 -119 150 -149 l57 -28
1470 0 1470 0 63 34 c70 38 100 69 140 145 l27 51 0 405 0 405 -27 51 c-40 76
-70 107 -140 145 l-63 34 -1455 2 c-1390 2 -1457 2 -1508 -16z m2923 -207 c63
-29 65 -44 65 -414 0 -282 -2 -337 -16 -365 -33 -69 69 -65 -1478 -65 -1529 0
-1448 -3 -1480 59 -24 45 -24 697 0 742 31 61 -50 58 1477 59 1254 0 1402 -2
1432 -16z"/>
<path d="M245 3191 c-90 -22 -172 -90 -215 -176 l-25 -50 0 -405 0 -405 34
-63 c38 -70 69 -100 145 -140 l51 -27 1470 0 1470 0 57 28 c62 30 115 83 150
149 23 43 23 44 23 458 0 414 0 415 -23 458 -35 66 -88 119 -150 149 l-57 28
-1450 2 c-797 0 -1463 -2 -1480 -6z m2890 -215 c64 -27 65 -36 65 -416 0 -380
-1 -389 -65 -416 -29 -12 -247 -14 -1431 -14 -1547 0 -1445 -4 -1478 65 -24
49 -24 681 0 730 32 69 -71 65 1477 65 1186 0 1403 -2 1432 -14z"/>
<path d="M4341 3185 c-110 -24 -226 -89 -311 -175 -250 -250 -252 -649 -5
-895 122 -121 256 -183 419 -192 292 -16 560 170 649 452 31 99 31 271 0 370
-101 318 -428 510 -752 440z m285 -226 c111 -42 190 -115 239 -222 118 -257
-42 -552 -324 -598 -225 -36 -444 127 -482 360 -28 176 73 366 236 442 110 52
223 58 331 18z"/>
<path d="M501 1265 c-110 -24 -226 -89 -311 -175 -250 -250 -252 -649 -5 -895
122 -121 256 -183 419 -192 292 -16 560 170 649 452 31 99 31 271 0 370 -101
318 -428 510 -752 440z m285 -226 c111 -42 190 -115 239 -222 118 -257 -42
-552 -324 -598 -225 -36 -444 127 -482 360 -28 176 73 366 236 442 110 52 223
58 331 18z"/>
<path d="M1922 1261 c-29 -10 -70 -32 -90 -48 -47 -37 -99 -113 -112 -164 -7
-25 -10 -178 -8 -432 3 -387 3 -393 26 -435 35 -66 88 -119 150 -149 l57 -28
1470 0 1470 0 63 34 c70 38 100 69 140 145 l27 51 0 405 0 405 -27 51 c-40 76
-70 107 -140 145 l-63 34 -1455 2 c-1390 2 -1457 2 -1508 -16z m2923 -207 c63
-29 65 -44 65 -414 0 -282 -2 -337 -16 -365 -33 -69 69 -65 -1478 -65 -1529 0
-1448 -3 -1480 59 -24 45 -24 697 0 742 31 61 -50 58 1477 59 1254 0 1402 -2
1432 -16z"/>
</g>
</svg>
