<?xml version="1.0" standalone="no"?>
<!DOCTYPE svg PUBLIC "-//W3C//DTD SVG 20010904//EN"
 "http://www.w3.org/TR/2001/REC-SVG-20010904/DTD/svg10.dtd">
<svg version="1.0" xmlns="http://www.w3.org/2000/svg"
 width="512.000000pt" height="512.000000pt" viewBox="0 0 512.000000 512.000000"
 preserveAspectRatio="xMidYMid meet">

<g transform="translate(0.000000,512.000000) scale(0.100000,-0.100000)"
fill="#004aad" stroke="none">
<path d="M2320 4789 c-830 -91 -1517 -618 -1834 -1408 -241 -597 -217 -1249
65 -1815 452 -906 1460 -1401 2445 -1201 99 20 123 28 142 50 26 31 27 46 7
85 -22 42 -52 46 -179 22 -421 -81 -836 -37 -1221 128 -248 106 -448 242 -647
439 l-127 126 5 45 c27 233 156 425 354 525 81 41 900 312 1012 335 130 27
306 27 436 0 54 -11 171 -44 262 -75 90 -30 172 -55 182 -55 32 0 71 44 71 80
0 50 -36 74 -185 121 -118 38 -130 44 -112 56 10 7 54 36 97 64 211 138 357
363 397 612 18 107 8 311 -19 412 -37 139 -122 295 -220 407 -59 67 -187 161
-278 204 -130 61 -245 86 -408 87 -173 2 -273 -21 -420 -93 -515 -252 -691
-896 -375 -1369 71 -106 188 -220 293 -285 42 -26 77 -49 77 -51 0 -2 -186
-65 -412 -141 -227 -75 -435 -148 -463 -162 -191 -95 -341 -268 -410 -471
l-21 -65 -51 85 c-203 336 -303 685 -303 1061 0 567 248 1140 668 1539 294
280 650 460 1052 530 148 26 427 36 575 20 537 -58 1020 -316 1366 -730 328
-391 499 -855 498 -1351 0 -169 -7 -246 -41 -417 -20 -104 -21 -113 -5 -136
23 -36 72 -45 106 -20 31 24 43 61 73 231 29 168 32 497 5 672 -152 985 -908
1745 -1887 1895 -126 19 -451 27 -570 14z m435 -938 c44 -12 123 -42 175 -67
81 -40 108 -60 185 -138 100 -100 154 -191 197 -326 20 -65 23 -95 23 -230 0
-178 -15 -243 -88 -385 -62 -121 -190 -246 -317 -308 -501 -246 -1064 39
-1150 583 -35 226 45 478 208 652 112 120 292 213 467 242 59 9 221 -4 300
-23z"/>
<path d="M3805 2073 c-60 -8 -181 -42 -239 -68 -310 -137 -526 -464 -526 -794
0 -146 57 -352 131 -477 19 -32 67 -93 108 -136 171 -181 382 -269 641 -269
260 0 473 89 642 270 87 93 130 162 174 279 150 402 13 830 -339 1060 -168
110 -394 161 -592 135z m295 -180 c146 -34 299 -131 386 -246 103 -136 148
-277 147 -462 0 -102 -4 -132 -26 -200 -38 -115 -90 -199 -182 -290 -91 -91
-175 -144 -290 -182 -71 -23 -96 -26 -215 -26 -119 0 -144 3 -215 26 -114 38
-198 90 -291 182 -90 89 -142 174 -182 293 -21 65 -25 96 -25 197 -1 138 16
219 67 328 142 307 478 461 826 380z"/>
<path d="M3842 1740 c-103 -63 -60 -210 61 -210 129 0 159 158 40 219 -32 16
-64 13 -101 -9z"/>
<path d="M3752 1397 c-46 -49 -19 -122 49 -133 l39 -7 0 -228 0 -229 -29 0
c-46 0 -81 -34 -81 -80 0 -30 6 -43 26 -59 24 -19 40 -21 164 -21 124 0 140 2
164 21 57 45 19 139 -55 139 l-29 0 0 285 0 286 -25 24 c-22 23 -32 25 -113
25 -80 0 -91 -2 -110 -23z"/>
</g>
</svg>
