<?xml version="1.0" standalone="no"?>
<!DOCTYPE svg PUBLIC "-//W3C//DTD SVG 20010904//EN"
 "http://www.w3.org/TR/2001/REC-SVG-20010904/DTD/svg10.dtd">
<svg version="1.0" xmlns="http://www.w3.org/2000/svg"
 width="512.000000pt" height="512.000000pt" viewBox="0 0 512.000000 512.000000"
 preserveAspectRatio="xMidYMid meet">

<g transform="translate(0.000000,512.000000) scale(0.100000,-0.100000)"
fill="#011254" stroke="none">
<path d="M4125 4945 c-33 -7 -77 -20 -98 -28 l-37 -16 0 -1149 0 -1150 73 20
c113 31 285 28 402 -6 145 -43 254 -111 358 -220 l47 -51 -3 1055 c-3 1168 1
1095 -68 1233 -47 93 -172 214 -271 261 -130 63 -270 80 -403 51z"/>
<path d="M1227 4113 c-4 -3 -7 -430 -7 -948 l0 -941 59 -12 c200 -42 387 -227
436 -433 38 -162 3 -349 -89 -474 -12 -16 -26 -36 -30 -42 -6 -10 54 -13 283
-13 l290 0 3 26 c3 24 13 31 85 59 46 17 86 35 90 39 4 4 17 31 28 59 l21 52
-39 89 -39 89 164 164 165 163 88 -39 c87 -38 90 -39 125 -24 19 8 45 19 56
23 15 6 32 35 56 97 l34 88 233 0 233 0 35 -88 c37 -92 35 -90 129 -127 15 -6
44 2 106 30 l85 38 166 -167 165 -166 -37 -85 -38 -84 20 -51 c11 -27 24 -54
28 -59 5 -5 46 -24 91 -41 65 -25 84 -37 86 -54 4 -27 29 -27 118 0 260 79
444 323 444 589 0 226 -142 453 -341 548 -107 51 -172 66 -284 66 -99 -1 -171
-18 -271 -65 -67 -32 -99 -32 -128 0 -14 16 -16 111 -18 857 l-3 839 -1296 3
c-712 1 -1299 -1 -1302 -5z m802 -141 c19 -9 44 -30 55 -45 20 -27 21 -43 24
-300 3 -305 0 -320 -67 -364 -33 -22 -40 -23 -303 -23 -300 0 -320 4 -358 65
-19 30 -20 49 -20 310 0 309 1 314 69 354 34 19 51 21 301 21 233 0 269 -2
299 -18z m1468 -134 c44 -41 22 -118 -39 -133 -13 -3 -263 -4 -556 -3 l-534 3
-25 29 c-29 35 -26 80 8 109 20 16 62 17 572 17 l551 0 23 -22z m-28 -319 c54
-19 69 -83 29 -126 l-21 -23 -558 0 -558 0 -20 26 c-12 15 -21 37 -21 49 0 29
35 73 63 78 53 10 1055 7 1086 -4z m-1428 -532 c65 -43 69 -61 69 -352 0 -286
-4 -306 -63 -349 -27 -20 -41 -21 -315 -21 -398 0 -372 -26 -372 370 0 397
-22 374 376 375 265 0 272 0 305 -23z m1456 -129 c48 -45 21 -120 -49 -133
-18 -3 -269 -5 -556 -3 l-524 3 -24 28 c-31 36 -31 71 1 102 l24 25 552 0 553
0 23 -22z m-18 -323 c47 -24 56 -83 19 -122 l-21 -23 -554 0 -554 0 -24 25
c-14 13 -25 35 -25 47 0 30 26 67 54 78 11 5 259 9 549 9 445 1 532 -1 556
-14z"/>
<path d="M1524 3817 c-2 -7 -3 -102 -2 -212 l3 -200 204 -3 c157 -2 206 1 213
10 13 22 10 392 -4 406 -18 18 -407 17 -414 -1z m387 -56 c16 -13 23 -29 23
-53 0 -29 -14 -52 -77 -130 -97 -119 -110 -131 -148 -131 -42 0 -179 134 -179
174 0 41 10 58 42 75 35 18 63 11 101 -25 l28 -26 27 31 c15 17 41 47 59 67
25 29 38 37 66 37 19 0 45 -8 58 -19z"/>
<path d="M1524 2837 c-2 -7 -3 -102 -2 -212 l3 -200 199 -3 c138 -2 203 1 212
9 11 9 14 52 14 199 0 104 -3 195 -6 204 -5 14 -33 16 -210 16 -157 0 -206 -3
-210 -13z m388 -56 c46 -44 30 -83 -95 -231 -56 -67 -67 -75 -101 -78 -37 -3
-44 1 -113 70 -60 60 -73 78 -73 104 0 40 26 72 66 80 25 5 38 0 66 -25 20
-17 38 -31 41 -31 2 0 26 26 52 58 66 81 112 97 157 53z"/>
<path d="M1062 2059 c-242 -47 -395 -305 -322 -541 114 -370 615 -409 787 -61
31 63 37 87 41 157 7 140 -33 240 -133 335 -103 97 -237 137 -373 110z"/>
<path d="M3116 1972 c-3 -5 -15 -35 -27 -68 -12 -32 -26 -64 -33 -70 -6 -7
-40 -21 -76 -33 -36 -12 -84 -32 -106 -45 l-42 -24 -73 33 -74 33 -88 -87 -87
-86 31 -72 32 -72 -37 -81 c-20 -44 -39 -94 -43 -110 -7 -36 -9 -37 -93 -71
l-65 -27 -3 -123 -2 -124 77 -30 c71 -28 78 -33 86 -65 4 -19 24 -70 44 -112
40 -86 41 -72 -10 -189 l-16 -36 87 -86 88 -87 71 32 72 32 63 -31 c35 -17 86
-38 115 -47 52 -17 52 -18 80 -92 l28 -74 125 2 125 3 26 70 c25 63 31 71 66
84 21 7 73 29 115 49 l78 35 72 -32 72 -32 87 87 88 87 -16 36 c-51 117 -50
103 -10 189 20 42 40 93 44 112 8 32 15 37 86 65 l77 30 -2 124 -3 123 -65 27
c-84 34 -86 35 -93 71 -4 16 -23 66 -43 110 l-37 81 32 72 31 72 -87 86 -88
87 -74 -33 -73 -33 -42 24 c-22 13 -70 33 -106 45 -36 12 -69 26 -75 31 -5 5
-21 39 -35 76 l-26 67 -121 3 c-67 1 -124 -1 -127 -6z m255 -428 c88 -26 150
-63 215 -128 100 -100 144 -210 144 -355 -1 -270 -218 -483 -490 -484 -175 0
-322 82 -420 234 -54 84 -73 164 -68 287 3 93 6 105 46 185 86 174 246 275
438 276 46 1 103 -6 135 -15z"/>
<path d="M960 1035 c-240 -48 -473 -211 -598 -419 -49 -81 -102 -208 -105
-252 l-2 -39 890 0 890 0 -1 35 c-2 54 -58 187 -116 275 -136 207 -343 348
-591 400 -83 18 -277 18 -367 0z"/>
</g>
</svg>
