<?xml version="1.0" standalone="no"?>
<!DOCTYPE svg PUBLIC "-//W3C//DTD SVG 20010904//EN"
 "http://www.w3.org/TR/2001/REC-SVG-20010904/DTD/svg10.dtd">
<svg version="1.0" xmlns="http://www.w3.org/2000/svg"
 width="610.000000pt" height="280.000000pt" viewBox="0 0 610.000000 280.000000"
 preserveAspectRatio="xMidYMid meet">

<g transform="translate(0.000000,280.000000) scale(0.100000,-0.100000)"
fill="#000000" stroke="none">
<path d="M1325 2420 c-33 -6 -81 -16 -107 -24 -33 -10 -60 -11 -86 -5 -94 22
-280 2 -338 -36 -18 -11 -30 -11 -90 6 -38 10 -117 24 -175 31 -223 25 -389
-43 -468 -191 -59 -112 -75 -257 -46 -427 54 -308 172 -644 275 -780 70 -93
152 -114 227 -58 24 18 32 20 36 10 15 -37 214 -71 294 -49 26 6 51 12 56 13
4 0 7 -42 7 -93 0 -121 17 -252 39 -302 25 -56 81 -101 148 -121 49 -14 69
-15 132 -5 147 23 242 88 276 190 16 49 40 199 51 315 l6 71 87 1 c127 1 191
23 257 88 111 112 89 219 -41 195 -22 -5 -68 -8 -102 -9 l-62 0 38 68 c132
233 223 525 224 717 1 129 -14 166 -99 244 -70 64 -158 112 -249 136 -76 20
-213 27 -290 15z m322 -88 c126 -48 232 -139 252 -217 45 -179 -58 -561 -227
-838 -27 -45 -37 -69 -29 -72 26 -9 85 -10 165 -1 90 9 112 2 112 -39 0 -28
-67 -90 -124 -115 -55 -25 -158 -42 -220 -38 l-50 3 -23 -175 c-28 -209 -34
-232 -72 -291 -37 -60 -113 -99 -205 -106 -95 -8 -130 2 -180 50 -63 61 -77
113 -83 325 -3 94 -7 172 -8 172 -1 0 -24 -12 -51 -27 -42 -24 -60 -28 -129
-28 -118 1 -186 39 -172 97 7 27 25 36 117 62 34 9 66 27 83 44 l27 29 -47 12
c-27 6 -53 13 -59 14 -6 1 -54 -47 -108 -106 -99 -109 -124 -127 -175 -127
-125 0 -262 278 -352 715 -68 331 -12 547 162 624 113 50 302 50 464 0 l69
-21 56 28 c53 28 59 29 215 30 88 0 187 6 220 12 33 7 78 13 100 15 79 4 221
-11 272 -31z"/>
<path d="M1343 2303 c-29 -2 -53 -7 -53 -11 0 -4 21 -18 48 -32 64 -34 189
-161 235 -240 59 -101 70 -153 57 -252 -7 -52 -9 -137 -5 -233 7 -138 5 -154
-14 -204 -11 -30 -19 -57 -17 -59 5 -5 87 145 125 229 104 231 158 505 117
602 -28 69 -165 164 -267 186 -59 13 -162 19 -226 14z"/>
<path d="M341 2265 c-99 -28 -144 -66 -188 -160 -27 -57 -28 -67 -28 -200 1
-117 5 -159 29 -260 67 -287 156 -514 230 -588 62 -62 74 -57 213 100 l72 80
-29 28 c-16 15 -38 49 -49 75 -19 45 -20 63 -16 301 3 212 7 267 24 330 22 86
66 180 107 228 14 17 25 33 23 35 -2 2 -35 11 -74 20 -99 25 -246 30 -314 11z"/>
<path d="M894 2262 c-101 -35 -174 -117 -220 -250 -13 -38 -26 -94 -30 -125
l-7 -56 44 21 c64 31 174 36 216 9 18 -11 39 -31 48 -44 23 -36 45 -151 45
-242 0 -90 -13 -142 -63 -265 l-35 -85 30 -6 c35 -8 73 -41 87 -77 5 -15 11
-133 13 -262 3 -230 4 -236 30 -292 31 -67 69 -92 139 -91 106 1 192 55 218
135 12 40 36 202 51 353 17 171 19 176 56 211 33 32 33 32 15 56 -32 41 -159
291 -180 355 -27 81 -28 167 -1 211 27 44 89 72 163 72 l57 0 -29 58 c-82 163
-215 277 -368 317 -78 21 -215 19 -279 -3z"/>
<path d="M1450 1823 c-8 -3 -25 -15 -37 -26 -49 -44 -18 -176 85 -367 l51 -94
11 29 c8 21 10 79 5 185 -3 85 -2 183 3 218 l9 62 -56 -1 c-31 0 -63 -3 -71
-6z m68 -25 c9 -9 8 -16 -5 -30 -20 -23 -71 -24 -80 -2 -12 33 58 59 85 32z"/>
<path d="M707 1796 c-33 -14 -61 -26 -63 -29 -2 -2 -6 -85 -9 -185 -5 -171 -4
-184 16 -227 26 -56 77 -99 135 -115 25 -7 46 -11 47 -9 3 6 45 120 75 204 22
63 24 81 19 170 -10 172 -33 215 -114 215 -27 0 -74 -11 -106 -24z m174 -22
c11 -14 10 -19 -10 -35 -29 -24 -43 -24 -72 -1 -14 12 -20 25 -16 35 9 23 80
23 98 1z"/>
<path d="M1563 1157 c-22 -9 -41 -62 -28 -75 3 -4 39 -6 80 -5 76 1 150 20
197 51 27 18 26 18 -65 14 -66 -3 -102 0 -127 10 -25 11 -41 12 -57 5z"/>
<path d="M853 1106 c-42 -44 -60 -56 -105 -66 -77 -18 -89 -27 -53 -37 53 -14
137 -7 182 15 40 21 83 68 83 91 0 13 -36 51 -48 51 -4 0 -31 -24 -59 -54z"/>
<path d="M4596 1772 c-80 -28 -115 -99 -93 -190 16 -62 52 -85 175 -112 218
-49 232 -57 232 -140 0 -86 -52 -121 -176 -121 -115 0 -177 40 -190 123 -6 34
-10 38 -35 38 -26 0 -29 -4 -29 -30 0 -115 115 -187 280 -178 152 9 214 65
207 187 -5 101 -31 117 -268 170 -117 27 -142 47 -142 117 0 73 57 113 163
114 91 0 170 -50 170 -109 0 -29 3 -31 35 -31 34 0 34 1 28 33 -14 73 -53 115
-128 136 -59 16 -173 13 -229 -7z"/>
<path d="M5187 1776 c-136 -49 -206 -166 -195 -330 8 -119 67 -210 167 -257
68 -32 188 -37 263 -12 l57 19 48 -37 c45 -36 48 -37 66 -21 19 16 18 18 -26
57 l-44 40 33 43 c43 55 58 108 58 207 -1 61 -6 92 -23 132 -31 71 -103 137
-172 157 -64 19 -180 20 -232 2z m199 -41 c64 -19 113 -60 144 -121 21 -42 25
-63 25 -139 -1 -77 -4 -97 -27 -140 -46 -89 -112 -126 -222 -127 -123 0 -206
56 -242 165 -21 63 -15 187 10 237 59 115 181 164 312 125z"/>
<path d="M5660 1478 l0 -303 218 3 c209 3 218 4 218 22 0 19 -8 20 -188 20
l-188 0 0 280 0 280 -30 0 -30 0 0 -302z"/>
<path d="M2258 1702 l-128 -3 0 -249 0 -250 30 0 30 0 0 110 0 110 115 0 c128
0 171 11 198 53 39 59 30 151 -18 197 -31 30 -74 36 -227 32z m180 -53 c50
-31 53 -131 5 -169 -22 -17 -40 -20 -139 -20 l-114 0 0 106 0 107 113 -5 c73
-3 120 -9 135 -19z"/>
<path d="M3340 1585 c0 -54 0 -55 -30 -55 -20 0 -30 -5 -30 -15 0 -10 10 -15
30 -15 l30 0 0 -133 c0 -117 2 -136 18 -150 24 -22 102 -23 102 -2 0 8 -9 15
-21 15 -11 0 -29 5 -40 10 -17 10 -19 22 -19 135 l0 125 40 0 c29 0 40 4 40
15 0 11 -11 15 -40 15 l-40 0 0 55 c0 48 -2 55 -20 55 -18 0 -20 -7 -20 -55z"/>
<path d="M2634 1526 c-90 -40 -119 -174 -59 -267 63 -98 251 -87 300 17 23 49
23 144 -1 185 -32 54 -67 73 -142 76 -42 2 -79 -2 -98 -11z m165 -38 c48 -29
67 -138 36 -198 -23 -45 -53 -60 -117 -60 -49 0 -62 4 -90 29 -29 25 -32 35
-36 95 -5 75 8 104 61 137 36 22 108 21 146 -3z"/>
<path d="M2990 1522 c-48 -23 -63 -79 -33 -120 17 -23 34 -30 124 -47 88 -17
105 -24 115 -44 27 -53 -9 -84 -97 -85 -67 -1 -104 17 -118 55 -7 21 -14 26
-31 22 -27 -7 -19 -38 20 -74 33 -31 102 -44 176 -33 91 13 133 90 82 149 -19
21 -40 28 -112 41 -96 16 -125 27 -127 47 -5 52 26 77 96 77 58 0 105 -27 105
-61 0 -14 7 -19 25 -19 23 0 25 3 19 28 -9 35 -21 50 -55 68 -39 20 -146 18
-189 -4z"/>
<path d="M3541 1522 c-59 -29 -76 -63 -76 -147 0 -59 4 -79 21 -102 55 -75
191 -86 263 -20 l24 22 -6 -50 c-3 -28 -11 -63 -18 -77 -31 -70 -202 -68 -224
2 -4 13 -15 20 -30 20 -23 0 -24 -2 -14 -27 17 -45 38 -61 94 -74 102 -23 198
13 222 81 7 22 12 101 12 208 l1 172 -24 0 c-19 0 -22 -4 -18 -25 2 -15 0 -25
-7 -25 -6 0 -11 5 -11 10 0 6 -15 19 -32 30 -42 26 -130 27 -177 2z m154 -26
c18 -8 41 -26 50 -40 20 -29 23 -106 6 -148 -31 -81 -177 -88 -227 -12 -24 36
-24 122 0 158 33 51 106 69 171 42z"/>
<path d="M3970 1533 c-8 -3 -25 -17 -38 -31 l-23 -27 7 28 c5 24 3 27 -20 27
l-26 0 0 -165 0 -165 24 0 c24 0 24 0 28 126 3 124 3 126 31 150 19 17 40 24
68 24 32 0 39 3 39 20 0 17 -6 20 -37 19 -21 0 -45 -3 -53 -6z"/>
<path d="M4154 1526 c-62 -27 -101 -106 -90 -184 8 -62 39 -107 90 -131 92
-45 198 -14 242 72 14 26 13 27 -8 27 -15 -1 -30 -12 -43 -33 -27 -43 -87 -63
-143 -47 -49 13 -92 60 -92 101 l0 29 150 0 150 0 0 27 c0 50 -38 110 -84 132
-49 24 -125 27 -172 7z m154 -36 c27 -17 62 -70 62 -95 0 -3 -58 -5 -130 -5
-143 0 -145 1 -114 61 29 57 121 76 182 39z"/>
</g>
</svg>
